<svg xmlns="http://www.w3.org/2000/svg" xml:space="preserve" width="1500" height="260" data-id="lg_nNW7QD57H6k5g6PRBT" data-version="1" viewBox="0 0 1500 260"><g data-padding="20"><g transform="translate(10 4.66)scale(.96416)"><rect width="358.32" height="184.823" x="213.957" y="-363.116" fill="none" rx="0" ry="0" transform="matrix(.95 0 0 .95 400 409.61)"/><path fill="#ecdf8c" d="M743.3 78.883h18.59v2.555q-4.38-.162-5.909.912-1.53 1.073-2.517 2.44-.998 1.36-2.07 5.491l-13.805 47.111h-3.306l-15.21-45.04-17.432 45.04h-3.306L684.2 81.438h-6.118v-2.556h21.736v2.555h-6.28l9.671 42.484 17.604-45.04h2.565l14.877 43.72 9.177-32.32q1.396-4.873 1.396-6.279t-.864-1.985-4.664-.58Zm46.852 56.107h4.798v2.308h-13.224v-6.774q-7.353 7.772-13.889 7.772-4.38 0-7.02-2.565-2.898-2.565-2.898-7.268 0-6.536 5.044-9.756 3.8-2.318 10.66-3.553l8.103-1.406q.161-5.871-.988-8.599-1.653-3.885-5.71-3.885-7.02 0-7.106 4.712 0 .827.95 1.947.95 1.113.95 1.197.086 1.236-1.197 2.063-1.282.826-2.356.58-4.132 0-4.047-4.59.086-4.589 5.7-6.897 3.477-1.32 7.353-1.32 6.536 0 9.757 3.628 3.22 3.971 3.22 12.57v18.012q0 .827.58 1.33.58.494 1.32.494m-8.426-7.772v-10.743q-7.192.91-11.818 2.726-2.147.826-3.553 3.059t-1.406 4.874q0 2.65 1.862 4.464 1.852 1.824 4.455 1.948 2.613.123 5.54-1.74 2.934-1.861 4.92-4.587m57.361 7.866h4.788v2.223h-20.159v-2.223h4.874q1.567 0 1.814-1.91v-19.58q0-4.797-2.48-7.485t-6.365-2.69q-3.876 0-7.182 2.566-3.144 2.65-3.144 4.959v22.23q.247 1.91 1.9 1.91h4.797v2.223h-20.168v-2.223h4.788q1.653 0 1.91-1.91V104.58q-.086-2.812-2.813-2.812h-3.885v-2.223h13.557v2.223q-.086.998-.086 2.318v1.653q.665-1.567 3.467-3.971 4.218-3.306 9.177-3.306 13.31 0 13.31 14.136v20.577q.247 1.91 1.9 1.91m18.591-52.82q1.824 0 3.107 1.244 1.273 1.235 1.32 3.097.038 1.862-1.368 3.183t-3.135 1.32q-1.738 0-3.106-1.32-1.359-1.321-1.359-3.022 0-1.69 1.36-3.097 1.367-1.406 3.181-1.406m-9.67 17.357h13.394v33.554q0 1.91 1.815 1.91h4.797v2.222h-20.007v-2.223h4.798q1.814 0 1.814-1.91v-29.421q-.247-1.9-1.814-1.9h-4.797ZM614.09 162.549h25.042q10.165 0 15.38 4.465 5.206 4.465 5.206 12.065 0 7.61-7.03 11.903-6.118 3.8-16.359 3.8h-6.944v22.154h7.685v2.565h-22.98v-2.565h7.771v-51.822h-7.77Zm32.48 26.95q4.712-3.552 4.551-10.667-.17-7.106-3.268-10.412t-9.709-3.306h-8.759v27.446h7.106q6.194 0 10.08-3.06m23.645 25.869v-28.52q-.086-2.811-2.812-2.811h-3.8v-2.308h13.547v7.6q.912-2.233 3.391-4.788 3.724-3.724 7.857-3.724 2.48 0 3.961 1.653 1.492 1.653 1.492 3.97 0 4.542-4.133 4.96-1.653-3.64-5.453-3.64-2.736 0-4.959 2.728-2.232 2.726-2.232 6.203v18.677q.247 1.9 1.9 1.9h4.788v2.233H663.68v-2.233h4.626q1.492 0 1.91-1.9m61.322-29.098q5.292 5.206 5.292 13.765 0 8.55-5.87 14.336t-15.372 5.956q-7.524.076-12.73-5.206-4.959-5.377-4.959-14.174 0-8.806 5.538-14.43 5.54-5.615 15.04-5.615 7.855 0 13.061 5.368m-12.644 31.407q5.206 0 7.81-4.38t2.602-11.362-3.553-12.683q-3.638-5.624-9.006-5.624-11.324 0-11.324 14.46 0 7.694 2.812 12.976 3.553 6.612 10.66 6.612m64.048-.417h4.96v2.233H774.27l.332-7.277q-1.49 3.059-4.959 5.377-4.056 2.973-9.338 2.973-8.266 0-12.655-5.662-4.379-5.662-4.379-14.63t6.118-14.84q6.118-5.86 15.048-5.537 3.467.418 6.441 1.653 2.65 1.406 3.477 2.897v-17.85q-.086-2.898-2.983-2.898h-3.886v-2.308h13.642v53.884q.162 1.985 1.815 1.985m-8.588-16.862V189.9q-.912-2.812-4.218-4.873-3.306-2.071-7.648-2.071t-7.647 3.477q-3.886 4.208-4.456 12.473-.503 6.365 3.05 11.324 3.81 5.539 9.756 5.539t8.845-5.035q2.318-4.057 2.318-10.336m57.512 16.862h4.788v2.309h-13.223l-.076-6.69q-5.13 7.687-14.63 7.687-7.524 0-9.918-4.465-1.406-2.565-1.406-9.424v-19.912q-.247-2.812-2.812-2.812h-3.885v-2.232h13.471v24.13q0 5.206 1.776 7.486 1.777 2.27 6.907 2.27 3.638 0 6.944-3.144 3.306-3.306 3.306-6.194v-19.504q-.17-2.812-2.983-2.812h-3.8v-2.232h13.471v33.715q0 .912.703 1.368t1.368.456m16.454-18.762q0 8.93 4.38 13.309 4.38 4.38 10.582 4.38 4.21 0 8.265-2.318l.827 1.159q-4.959 5.206-12.692 5.206-7.724 0-12.93-4.712-5.453-5.206-5.453-13.68 0-8.465 6.11-14.83 6.364-6.203 15.21-5.871 5.13.333 7.437 2.518 2.318 2.194 2.194 4.465-.123 2.27-1.529 3.429t-2.974 1.159q-1.577 0-2.897-.703t-1.073-1.615q.246-.902 1.567-1.567 1.491-.912 1.244-1.9-.247-2.812-5.709-2.812-3.714 0-7.6 3.22-4.959 4.057-4.959 11.163m37.193-23.713h4.218v10.165l10.326-.161-.16 3.8H889.73v21.327q0 5.529 4.294 5.529 1.9 0 4.712-1.482l.58.912q-2.812 5.7-8.597 5.7-7.933-.171-7.933-8.683v-23.303l-6.203.16v-2.231q.58-.162 1.577-.41 3.8-.911 5.538-3.6 1.73-2.68 1.814-7.723m48.023 33.06q0 5.7-4.427 9.215-4.418 3.514-10.08 3.514t-10.212-2.147q-1.32-.504-1.568 1.483-1.406-.247-1.9 0v-13.557h2.394v2.404q0 2.64 3.183 5.738 3.182 3.106 7.315 3.02 4.132-.085 6.698-1.738t2.565-4.873-4.304-5.044q-5.86-2.062-11.4-4.294-6.859-2.812-6.859-8.845 0-6.032 4.788-9.091 3.971-2.641 10.336-2.641 2.641 0 8.018 1.729v-1.568h2.223v10.992h-2.394v-1.74q0-2.972-2.764-4.834-2.774-1.853-7.03-1.853t-6.242 2.232q-1.567 1.976-1.197 4.38.37 2.394 2.356 3.553.912.656 7.23 2.936 6.327 2.27 9.3 4.084 3.971 2.727 3.971 6.945"/><rect width="587.714" height="27.12" x="99.26" y="-284.265" fill="none" rx="0" ry="0" transform="matrix(.95 0 0 .95 394.048 504.287)"/><path fill="#ecdf8c" d="M514.894 240.448q1.872 2.232 1.872 5.852 0 3.61-1.967 5.956-1.957 2.347-4.892 2.347-2.927 0-5.026-2.394-2.052-2.413-2.004-5.957.047-3.543 2.013-5.815 1.976-2.27 5.064-2.27t4.94 2.28m-4.969 13.357q2.12 0 3.211-2.024 1.093-2.033 1.093-5.396t-.96-5.272q-1.14-2.242-3.495-2.242t-3.458 2.128q-.912 1.795-.912 5.377 0 7.43 4.521 7.43m26.44-15.238h5.034v.712q-1.32 0-1.549.228-.598.59-.598 1.748l.047 13.414h-.522l-9.643-14.868v11.81q0 1.186.57 1.728.228.228 1.548.228v.712h-5.035v-.712q1.273 0 1.501-.2.637-.55.637-1.757v-11.809q-.066-.522-.684-.522h-1.273v-.713h4.56l7.543 11.742v-9.053q0-1.159-.636-1.776-.247-.2-1.5-.2Zm26.79 10.27h.722l-.247 5.452h-13.244v-.712h2.138V239.29h-2.137v-.713h12.882l.038 4.627h-.703q-.162-1.976-1.093-2.907-.94-.92-3.059-.969l-3.895-.038v6.612h2.784q.978 0 1.453-.57.523-.73.523-2.128h.712v6.318h-.712q0-1.34-.55-2.1-.562-.75-1.426-.75h-2.784v6.906l4.266-.066q.636 0 1.54-.342.891-.342 1.33-.77 1.367-1.282 1.462-3.562m37.504 0h.722l-.294 5.452h-12.426v-.712h2.147V239.29h-2.147v-.713h6.318v.713h-2.148v14.288l3.496-.067q.608 0 1.52-.342.913-.342 1.35-.769 1.368-1.283 1.463-3.563m14.487 4.741h2.12v.712h-6.528v-.712h2.147V239.29h-2.147v-.713h6.527v.713h-2.119Zm11.392-15h12.882l.038 4.626h-.703q-.162-1.976-1.083-2.907-.922-.92-3.069-.969l-3.895-.038v6.613h2.784q.997 0 1.434-.57.523-.731.523-2.128h.731v6.317h-.73q0-1.34-.552-2.1-.542-.75-1.406-.75h-2.784v6.906h2.12v.714h-6.29v-.714h2.137V239.29h-2.137Zm34.902 10.26h.732l-.257 5.452h-13.243v-.712h2.147V239.29h-2.147v-.713h12.882l.048 4.627h-.713q-.152-1.976-1.092-2.907-.93-.92-3.05-.969l-3.904-.038v6.612h2.784q.978 0 1.463-.57.522-.73.522-2.128h.703v6.318h-.703q0-1.34-.56-2.1-.56-.75-1.425-.75h-2.784v6.906l4.266-.066q.636 0 1.538-.342.903-.342 1.33-.77 1.368-1.281 1.463-3.562m40.262-2.224q0 3.192-2.11 5.5-2.109 2.3-4.864 2.214-4.15-.142-7.77-.047v-.713h2.137V239.28h-2.137v-.712q2.023.114 3.6.095 1.568-.029 4.237 0 3.22.047 5.064 2.175t1.843 5.776m-3.487 4.77q1.121-1.777 1.083-4.912-.028-3.135-.902-4.826-1.064-2.166-3.6-2.366-2.053-.113-3.668.087v14.201q1.55.143 2.337.143t1.283-.048q2.356-.342 3.467-2.28m26.115-2.546h.731l-.247 5.453h-13.252v-.712h2.147V239.29h-2.147v-.713h12.882l.048 4.627h-.703q-.162-1.976-1.102-2.907-.93-.92-3.05-.969l-3.904-.038v6.613h2.783q.98 0 1.463-.57.523-.731.523-2.128h.703v6.317h-.703q0-1.34-.56-2.1-.56-.75-1.426-.75h-2.783v6.906l4.265-.065q.637 0 1.54-.342.902-.342 1.34-.77 1.367-1.282 1.452-3.562m20.426.437q0 2.64-2.128 4.037-1.824 1.207-4.58 1.207-1.662 0-3.714-.78l.02-3.62h.683q.143 1.796 1.074 2.594.437.37 1.273.618.845.247 1.53.228 1.576-.02 2.764-.845 1.16-.846 1.206-2.252 0-1.483-1.035-2.375-1.045-.893-2.87-1.092-4.854-.6-4.854-4.058 0-2.423 1.853-3.677 1.567-1.091 3.828-1.091.656 0 1.568.19.912.2 1.178.2t.351-.343h.637v4.075h-.684q-.152-1.68-1.007-2.432-.855-.76-2.546-.73-3.325.047-3.287 2.982.047 2.623 3.648 2.993 5.092.541 5.092 4.17m21.688-.437h.731l-.256 5.452h-13.244v-.712h2.147V239.29h-2.147v-.713h12.882l.048 4.627h-.712q-.152-1.976-1.093-2.907-.93-.92-3.05-.969l-3.904-.038v6.613h2.784q.978 0 1.463-.57.522-.731.522-2.128h.703v6.317h-.703q0-1.34-.56-2.1-.56-.75-1.425-.75h-2.784v6.906l4.266-.065q.636 0 1.54-.342t1.33-.77q1.366-1.282 1.461-3.562m19.931 4.217-4.36-6.222h-1.387l.048 6.745h2.118v.712h-6.337v-.712h2.12V239.29h-2.119v-.712h6.906q2.755 0 4.19 1.092 1.444 1.102 1.444 2.926t-1.283 2.964q-1.225 1.026-3.24 1.159l4.674 6.337q.371.456 1.625.57v.684q-1.662-.067-5.272 0l.028-.733h.637q.323-.065.323-.237t-.114-.285m-5.748-6.888h1.986q4.142 0 4.056-3.572-.095-3.306-3.58-3.306h-2.414Zm27.665-7.543h4.978v.684q-1.188-.019-1.625.275-.636.41-1.273 2.185l-4.95 12.996h-.912l-5.358-15.456h-1.71v-.684h5.91v.684h-1.824l4.19 12.036 3.742-9.576q.41-1.073.41-1.548t-.134-.684q-.095-.228-1.444-.228Zm26.324 10.212h.731l-.256 5.453H821.85v-.712h2.147V239.29h-2.148v-.713h12.882l.048 4.627h-.712q-.152-1.976-1.093-2.907-.93-.92-3.05-.969l-3.904-.038v6.612h2.784q.978 0 1.463-.57.522-.73.522-2.128h.703v6.318h-.703q0-1.34-.56-2.1-.56-.75-1.425-.75h-2.784v6.906l4.266-.066q.636 0 1.54-.342t1.33-.77q1.367-1.281 1.462-3.562m20.416.438q0 2.64-2.119 4.036-1.824 1.207-4.579 1.207-1.662 0-3.714-.78l.02-3.619h.683q.133 1.795 1.073 2.593.428.371 1.273.618.846.247 1.53.228 1.577-.019 2.755-.845 1.168-.846 1.216-2.252 0-1.482-1.045-2.375-1.036-.893-2.86-1.092-4.854-.599-4.854-4.057 0-2.423 1.843-3.677 1.577-1.092 3.838-1.092.655 0 1.567.19.912.2 1.178.2.257 0 .352-.342h.636v4.075h-.684q-.16-1.68-1.016-2.432-.855-.76-2.537-.73-3.334.046-3.287 2.982.048 2.622 3.648 2.992 5.083.542 5.083 4.17m23.787-10.697h6.907q2.803 0 4.237 1.235 1.434 1.226 1.434 3.325t-1.937 3.288q-1.68 1.045-4.512 1.045h-1.91v6.109h2.12v.712h-6.338v-.712h2.138V239.29h-2.138Zm8.96 7.44q1.301-.989 1.253-2.946-.047-1.957-.902-2.869t-2.68-.912h-2.413v7.563h1.957q1.71 0 2.784-.837m22.02 7.04-4.35-6.223h-1.397l.047 6.745h2.12v.712h-6.338v-.712h2.12V239.29h-2.12v-.713h6.907q2.764 0 4.2 1.093 1.433 1.102 1.433 2.926t-1.273 2.964q-1.235 1.026-3.24 1.16l4.674 6.335q.361.456 1.615.57v.684q-1.662-.065-5.263 0l.02-.73h.645q.314-.068.314-.239t-.114-.285m-5.748-6.887h1.986q4.151 0 4.056-3.572-.085-3.306-3.572-3.306H904.1Zm31.247 2.67h.731l-.247 5.452H922.53v-.712h2.147V239.29h-2.147v-.713h12.882l.047 4.627h-.703q-.16-1.976-1.092-2.907-.94-.92-3.06-.969l-3.895-.038v6.612h2.774q.988 0 1.463-.57.523-.73.523-2.128h.712v6.318h-.712q0-1.34-.56-2.1-.55-.75-1.425-.75h-2.774v6.906l4.256-.066q.646 0 1.54-.342.901-.342 1.338-.77 1.368-1.281 1.454-3.562m26.437 4.74h2.128v.712h-6.346v-.712h2.128v-13.423l-5.519 13.88-.342.028-5.044-13.841v11.4q0 1.158.57 1.728.228.228 1.558.228v.712h-5.016v-.712q1.273 0 1.5-.2.637-.55.637-1.757v-11.809q-.066-.522-.684-.522h-1.273v-.712h4.494l4.19 11.856 4.787-11.856h4.36v.712h-2.128Zm16.332 0h2.118v.712h-6.517v-.712h2.138V239.29h-2.138v-.713h6.517v.713h-2.118Zm21.858-15.067h5.016v.703q-1.339 0-1.567.228-.57.57-.57 1.786v6.698q0 3.648-1.254 5.177-1.254 1.53-4.589 1.53-2.688 0-4.18-1.634-1.49-1.625-1.49-3.705v-10.08h-2.1v-.703h6.27v.703h-2.147v9.994q0 4.74 4.313 4.74 4.427 0 4.427-5.29v-7.43q0-1.254-.598-1.804-.228-.21-1.53-.21Zm30.03 15.067h2.118v.712h-6.336v-.712h2.12v-13.423l-5.51 13.88-.343.028-5.045-13.841v11.4q0 1.158.57 1.728.228.228 1.55.228v.712h-5.018v-.712q1.282 0 1.51-.2.637-.55.637-1.757v-11.809q-.067-.522-.684-.522h-1.273v-.712h4.484l4.2 11.856 4.787-11.856h4.35v.712h-2.118Z"/><g transform="matrix(.3 0 0 .3 400.87 291.31)"><linearGradient id="a" x1="0" x2="1" y1="0" y2="0" gradientUnits="objectBoundingBox"><stop offset="0%" stop-color="#9c7945"/><stop offset="49.8%" stop-color="#faf3aa"/><stop offset="100%" stop-color="#9c7945"/></linearGradient><path fill="url(#a)" d="M1420.171-515.832c-9.4 3.6-19.3 5.6-27.7 5.6-21 0-63.9-20.4-62-53.1 2.1-35.9 35.7-27.1 35.7-27.1-8 8-1.9 15.1 10.7 17.2s12.6 9.9 12.6 9.9c5.7-4.8 1.7-38.9-30.7-38.9-34.9 0-46.8 28.4-46.8 41.8s5.3 24.2 5.3 24.2c-26.9 10.9-21.6 38-21.6 38 35.7-36.5 54.6-.6 96.6-.6 13.9 0 26.8-3.3 37.8-8.4 0-.1-5.5-3.6-9.9-8.6m267.4 0c9.4 3.6 19.3 5.6 27.7 5.6 21 0 63.9-20.4 62-53.1-2.1-35.9-35.7-27.1-35.7-27.1 8 8 1.9 15.1-10.7 17.2s-12.6 9.9-12.6 9.9c-5.7-4.8-1.7-38.9 30.7-38.9 34.9 0 46.8 28.4 46.8 41.8s-5.3 24.2-5.3 24.2c26.9 10.9 21.6 38 21.6 38-35.7-36.5-54.6-.6-96.6-.6-13.9 0-26.8-3.3-37.8-8.4 0-.1 5.5-3.7 9.9-8.6m-223.6-42.9c-5 16.6-18.2 29.7-33.1 37.9 4.5 4.2 10.7 7.1 10.7 7.1 15.2-10.1 26.4-24.3 31.9-37.8-.1 0-3.4-4.4-9.5-7.2" transform="translate(-309 -307)"/></g><g transform="matrix(.3 0 0 .3 358.348 288.877)"><linearGradient id="b" x1="0" x2="1" y1="0" y2="0" gradientUnits="objectBoundingBox"><stop offset="0%" stop-color="#9c7945"/><stop offset="49.8%" stop-color="#faf3aa"/><stop offset="100%" stop-color="#9c7945"/></linearGradient><path fill="url(#b)" d="M1444.771-530.432c-9.4-11.4-15.6-25.4-15.6-40.9 0-13.2 9-26.5 25.9-26.5 13.7 0 22.2 11.6 22.2 28.1 0 2-.3 4.5-.6 6.5-4.3-3.7-10.6-6.6-10.6-6.6.1-1.1.1-2.5.1-3.7 0-6.9-5.9-11.8-12.4-11.8s-13.2 4.8-13.2 18.3c0 5.7 4.1 17.1 12.4 28.2 0 0-5.1 6.1-8.2 8.4m-14.6-30c-40.5 11.6-38.2 41.5-38.2 41.5-17.4 1.3-17-15.1-17-15.1-36.8-.6-26.7-44.3-26.7-44.3s4 23.3 40.3 21.4c15-.8 25.7-10.2 40.5-14.8.1.1.2 7.9 1.1 11.3" transform="translate(-167.27 -298.89)"/></g><g transform="matrix(.3 0 0 .3 395.356 287.173)"><linearGradient id="c" x1="0" x2="1" y1="0" y2="0" gradientUnits="objectBoundingBox"><stop offset="0%" stop-color="#9c7945"/><stop offset="49.8%" stop-color="#faf3aa"/><stop offset="100%" stop-color="#9c7945"/></linearGradient><path fill="url(#c)" d="M1478.271-506.032c-5.1 4.1-12.4 7.3-22 7.3-22 0-44.6-17.9-52.3-47.4 0 0 4.5-4.6 9.4-7.2 6.9 33.7 31.3 43.2 42.8 43.2 2.4 0 6.1-.8 9.5-2.5-.1.1 8.1 5 12.6 6.6m51.1-90.8c-16.2-32.4-51.3-31.8-61.6-32.4-4.7-.3-24.9-.3-49.8 16.6-17 11.5-23.7 6.3-23.7 6.3-1.5 15.3 9 16.8 9 16.8-2.1 10.7-2.4 20.8-1.6 29.9.9-.2 10.2-4.5 10.2-4.5-2.8-37.3 19.8-45.5 33.2-45.5 26 0 33.8 18.5 52.1 18.5 12.4 0 10.5-14.5 10.5-14.5s6.7 4.5 11.8 13.9c.1-.1 6.6-3 9.9-5.1m114.4 38.1c5 16.6 18.2 29.7 33.1 37.9-4.5 4.2-10.7 7.1-10.7 7.1-15.2-10.1-26.4-24.3-31.9-37.8 0 0 3.4-4.4 9.5-7.2" transform="translate(-290.63 -293.22)"/></g><g transform="matrix(.3 0 0 .3 431.065 287.14)"><linearGradient id="d" x1="0" x2="1" y1="0" y2="0" gradientUnits="objectBoundingBox"><stop offset="0%" stop-color="#9c7945"/><stop offset="49.8%" stop-color="#faf3aa"/><stop offset="100%" stop-color="#9c7945"/></linearGradient><path fill="url(#d)" d="M1662.971-530.432c9.4-11.4 15.6-25.4 15.6-40.9 0-13.2-9-26.5-25.9-26.5-13.7 0-22.2 11.6-22.2 28.1 0 2 .3 4.5.6 6.5 4.3-3.7 10.6-6.6 10.6-6.6-.1-1.1-.1-2.5-.1-3.7 0-6.9 5.9-11.8 12.4-11.8s13.2 4.8 13.2 18.3c0 5.7-4.1 17.1-12.4 28.2 0 0 5.1 6.1 8.2 8.4" transform="translate(-409.65 -293.1)"/></g><g transform="matrix(.3 0 0 .3 450.424 291.802)"><linearGradient id="e" x1="0" x2="1" y1="0" y2="0" gradientUnits="objectBoundingBox"><stop offset="0%" stop-color="#9c7945"/><stop offset="49.8%" stop-color="#faf3aa"/><stop offset="100%" stop-color="#9c7945"/></linearGradient><path fill="url(#e)" d="M1677.471-560.432c40.5 11.6 38.2 41.5 38.2 41.5 17.4 1.3 17-15.1 17-15.1 36.8-.6 26.7-44.3 26.7-44.3s-4 23.3-40.3 21.4c-15-.8-25.7-10.2-40.5-14.8 0 .1-.1 7.9-1.1 11.3" transform="translate(-474.18 -308.64)"/></g><g transform="matrix(.3 0 0 .3 428.476 287.173)"><linearGradient id="f" x1="0" x2="1" y1="0" y2="0" gradientUnits="objectBoundingBox"><stop offset="0%" stop-color="#9c7945"/><stop offset="49.8%" stop-color="#faf3aa"/><stop offset="100%" stop-color="#9c7945"/></linearGradient><path fill="url(#f)" d="M1629.471-506.032c5.1 4.1 12.4 7.3 22 7.3 22 0 44.6-17.9 52.3-47.4 0 0-4.5-4.6-9.4-7.2-6.9 33.7-31.3 43.2-42.8 43.2-2.4 0-6.1-.8-9.5-2.5.1.1-8.1 5-12.6 6.6m-51.2-90.8c16.2-32.4 51.3-31.8 61.6-32.4 4.7-.3 24.9-.3 49.8 16.6 17 11.5 23.7 6.3 23.7 6.3 1.5 15.3-9 16.8-9 16.8 2.1 10.7 2.4 20.8 1.6 29.9-.9-.2-10.2-4.5-10.2-4.5 2.8-37.3-19.8-45.5-33.2-45.5-26 0-33.8 18.5-52.1 18.5-12.4 0-10.5-14.5-10.5-14.5s-6.7 4.5-11.8 13.9c0-.1-6.5-3-9.9-5.1" transform="translate(-401.02 -293.22)"/></g><g transform="matrix(.3 0 0 .3 400.816 279.685)"><linearGradient id="g" x1="0" x2="1" y1="0" y2="0" gradientUnits="objectBoundingBox"><stop offset="0%" stop-color="#9c7945"/><stop offset="49.8%" stop-color="#faf3aa"/><stop offset="100%" stop-color="#9c7945"/></linearGradient><path fill="url(#g)" d="M1553.871-643.032s9.8 1.8 8.5 11.7c-.8 6-8.4 10.7-8.4 21.2 0 14.9 19.3 29.4 25.4 32.8s19.1 7.4 19.7 31.5c.6 24.2 17.4 15.3 17.4 15.3s1 8.5 6 16.6c4.6-1.5 11-5.4 11-5.4-3.8-4.1-6.7-9.3-6.1-15.6 2.5-26.7 31.4-28.9 39.1-27.7 1.4-4.4-.2-11.2-.2-11.2-1.3-.1-2.9-.2-4.3-.2-25.2 0-38 17.9-38 17.9s7.1-20.1-30.2-33.4c-29-10.3-29.2-21.8-29.2-21.8s9.6 8.2 16.2-4.2c4-7.6 7.1-12.4 15.1-10.9 0 0-3.4-15.8-22.3-13.2 0 0 4.1-11.8-19.9-24.4-23.9 12.6-19.9 24.4-19.9 24.4-18.9-2.5-22.3 13.2-22.3 13.2 8-1.5 11.1 3.4 15.1 10.9 6.5 12.4 16.2 4.2 16.2 4.2s-.2 11.6-29.2 21.8c-37.3 13.2-30.2 33.4-30.2 33.4s-12.8-17.9-38-17.9c-1.4 0-3 .1-4.3.2 0 0-1.5 6.7-.2 11.2 7.7-1.2 36.6 1.1 39.1 27.7.6 6.3-2.3 11.5-6.1 15.6 0 0 6.5 4 11 5.4 5-8.1 6-16.6 6-16.6s16.8 8.8 17.4-15.3c.6-24.2 13.7-28.1 19.7-31.5 6.1-3.4 25.4-17.9 25.4-32.8 0-10.5-7.6-15.2-8.4-21.2-.9-10 8.9-11.7 8.9-11.7" transform="translate(-308.82 -268.25)"/></g><g transform="matrix(.3 0 0 .3 391.3 294.295)"><linearGradient id="h" x1="0" x2="1" y1="0" y2="0" gradientUnits="objectBoundingBox"><stop offset="0%" stop-color="#9c7945"/><stop offset="49.8%" stop-color="#faf3aa"/><stop offset="100%" stop-color="#9c7945"/></linearGradient><path fill="url(#h)" d="M1560.871-527.532c13.1-12 30.5-4.6 30.5-4.6-8.5-17.9-9.8-32.3-8.3-43.4 0 0-6.8-3.6-10.2-6.3-.9 3.5-.9 7.8-1.4 11.9-.8 6.7 3.7 25.4 3.7 25.4-6.7 0-16.2 5.5-21.3 9.8 0 0 4.7 4.4 7 7.2m-14 .2c-7 7.3-19.3 17.9-36.4 17.9-21.9 0-38.7-9.6-50.2-20.9-1.9 2.7-7.7 8-7.7 8 16.2 14.6 38.8 23.6 59.4 23.6 18.6 0 28.9-7.6 41.9-21.3 0 .1-6.7-7.2-7-7.3" transform="translate(-277.1 -316.95)"/></g><g transform="matrix(.3 0 0 .3 410.44 294.295)"><linearGradient id="i" x1="0" x2="1" y1="0" y2="0" gradientUnits="objectBoundingBox"><stop offset="0%" stop-color="#9c7945"/><stop offset="49.8%" stop-color="#faf3aa"/><stop offset="100%" stop-color="#9c7945"/></linearGradient><path fill="url(#i)" d="M1532.571-544.432c7.4 0 18.3 6.7 22.8 11.1s18.7 23.9 41.9 23.9c21.9 0 38.7-9.6 50.2-20.9 1.9 2.7 7.7 8 7.7 8-16.2 14.6-38.8 23.6-59.4 23.6-21.1 0-31.4-9.8-47.3-27-13.2-14.4-32.1-6.4-32.1-6.4 8.5-17.9 9.8-32.3 8.3-43.4 0 0 6.8-3.6 10.2-6.3.9 3.5.9 7.8 1.4 11.9.9 6.8-3.7 25.5-3.7 25.5" transform="translate(-340.9 -316.95)"/></g></g><path fill="transparent" stroke="transparent" d="M471 0h558v260H471z"/></g></svg>